<svg width="400" height="390" viewBox="0 0 400 390" fill="none" xmlns="http://www.w3.org/2000/svg">
<path d="M1.21747 215.359C1.88414 217.092 2.81747 222.692 3.21747 227.759C3.7508 232.826 4.68414 237.359 5.21747 237.759C5.88414 238.159 6.41747 239.759 6.41747 241.359C6.41747 242.959 7.3508 246.026 8.41747 248.159C9.48414 250.159 10.4175 252.959 10.4175 254.159C10.4175 255.359 11.3508 258.026 12.5508 260.292C13.7508 262.426 15.8841 267.892 17.3508 272.292C18.8175 276.692 22.4175 283.759 25.3508 288.026C28.1508 292.292 31.0841 297.226 31.7508 299.092C32.4175 300.826 33.6175 302.292 34.4175 302.292C35.0841 302.292 35.7508 302.959 35.7508 303.759C35.7508 306.826 62.5508 338.292 65.0841 338.292C65.6175 338.292 69.3508 341.359 73.2175 345.092C77.2175 348.826 82.2841 352.692 84.5508 353.759C86.8175 354.692 89.4841 356.426 90.4175 357.626C92.5508 360.159 128.951 378.292 132.017 378.292C133.217 378.292 135.884 379.226 137.884 380.292C140.017 381.359 142.817 382.292 144.151 382.292C145.351 382.292 147.484 382.826 148.817 383.626C151.217 384.959 161.217 386.826 177.217 389.092C195.351 391.492 239.084 388.826 246.951 384.692C248.284 384.026 251.217 383.226 253.351 382.826C255.617 382.559 258.151 381.759 259.084 380.959C260.151 380.159 262.817 379.226 265.084 378.959C267.484 378.559 270.017 377.759 270.951 377.092C271.751 376.426 276.284 374.559 281.084 372.959C285.884 371.226 293.217 367.626 297.484 364.692C301.751 361.892 306.684 358.959 308.551 358.292C310.284 357.626 311.751 356.426 311.751 355.626C311.751 354.959 312.417 354.292 313.217 354.292C316.284 354.292 347.751 327.492 347.751 324.959C347.751 324.426 350.817 320.692 354.551 316.826C358.284 312.826 362.151 307.759 363.217 305.492C364.151 303.226 365.884 300.559 367.084 299.626C369.617 297.492 387.751 261.092 387.751 258.026C387.751 256.826 388.684 254.159 389.751 252.159C390.817 250.026 391.751 247.226 391.751 245.892C391.751 244.692 392.284 242.559 393.084 241.226C394.417 238.826 396.284 228.826 398.551 212.826C400.951 194.959 398.284 150.959 394.284 143.359C393.617 142.026 393.084 139.892 393.084 138.692C393.084 137.359 392.151 134.426 390.951 132.292C389.751 130.026 388.684 126.559 388.284 124.426C388.017 122.426 387.217 120.026 386.551 119.092C385.884 118.292 384.017 113.759 382.417 108.959C380.684 104.159 377.084 96.8255 374.151 92.5589C371.351 88.2922 368.417 83.3589 367.751 81.4922C367.084 79.7589 365.884 78.2922 365.084 78.2922C364.417 78.2922 363.751 77.6255 363.751 76.8255C363.751 73.7589 336.951 42.2922 334.417 42.2922C333.884 42.2922 330.151 39.2255 326.284 35.4922C322.284 31.7589 317.217 27.8922 314.951 26.8255C312.684 25.8922 310.151 24.1589 309.084 22.9589C306.951 20.4255 281.484 7.62553 280.417 8.6922C280.017 9.0922 279.751 30.0255 279.751 55.3589V101.226L288.017 110.826C292.551 116.026 297.351 121.359 298.551 122.559C301.751 125.759 311.751 146.026 311.751 149.226C311.751 150.559 312.551 153.092 313.617 154.692C316.017 158.559 318.951 177.892 318.951 190.292C318.951 201.626 316.017 222.026 314.284 223.092C313.617 223.492 313.084 224.959 313.084 226.559C313.084 228.026 309.751 235.892 305.751 244.159C298.151 259.359 290.017 269.359 272.417 284.959C265.217 291.359 245.351 302.292 240.951 302.292C239.484 302.292 236.951 303.092 235.351 304.159C231.484 306.559 212.151 309.492 199.751 309.492C188.417 309.492 168.017 306.559 166.951 304.826C166.551 304.159 165.084 303.626 163.484 303.626C162.017 303.626 154.151 300.292 145.884 296.292C130.684 288.692 120.684 280.559 105.084 262.959C98.5508 255.492 87.7508 235.759 87.7508 231.226C87.7508 229.492 87.0841 227.492 86.2841 226.692C83.6175 224.026 80.8175 204.959 80.8175 190.292C80.8175 176.292 82.9508 160.159 85.2175 157.626C85.8841 156.959 86.4175 155.226 86.4175 153.892C86.4175 152.426 89.7508 144.692 93.7508 136.426C99.6175 124.692 103.084 119.626 110.817 111.626C121.084 100.826 131.484 91.3589 136.684 88.0255L139.751 86.0255L139.484 43.7589C139.084 -3.17447 139.351 -1.7078 130.151 2.95887C127.751 4.15887 122.151 6.42553 117.751 7.8922C113.351 9.35887 106.284 12.9589 102.017 15.8922C97.7508 18.6922 92.8175 21.6255 90.9508 22.2922C89.2175 22.9589 87.7508 24.1589 87.7508 24.9589C87.7508 25.6255 87.0841 26.2922 86.2841 26.2922C83.2175 26.2922 51.7508 53.0922 51.7508 55.6255C51.7508 56.1589 48.6841 59.8922 44.9508 63.7589C41.2175 67.7589 37.3508 72.8255 36.2841 75.0922C35.3508 77.3589 33.6175 80.0255 32.4175 80.9589C29.8841 83.0922 11.7508 119.492 11.7508 122.559C11.7508 123.759 10.8175 126.426 9.7508 128.426C8.68414 130.559 7.7508 133.359 7.7508 134.692C7.7508 135.892 7.21747 138.026 6.5508 139.359C5.21747 141.626 3.08414 152.026 1.08414 166.292C-0.382528 176.426 -0.382528 211.626 1.21747 215.359Z" fill="black"/>
</svg>
