<svg width="959" height="960" viewBox="0 0 959 960" fill="none" xmlns="http://www.w3.org/2000/svg">
<path d="M447.267 1.80015C445.933 2.60015 442.6 3.00015 439.933 2.60015C437.133 2.33349 433.667 2.60015 431.933 3.26682C430.2 3.80015 424.467 4.46682 419.267 4.46682C413.933 4.60015 407.933 5.40015 405.667 6.20015C403.533 7.13349 398.067 8.06682 393.667 8.20015C389 8.33349 384.867 9.26682 383.533 10.4668C382.333 11.5335 378.733 12.3335 375.4 12.3335C371.667 12.3335 368.733 13.1335 367.667 14.3335C366.6 15.5335 363.667 16.3335 359.667 16.3335C355.667 16.3335 352.733 17.1335 351.667 18.3335C350.6 19.5335 347.667 20.3335 343.667 20.3335C339.667 20.3335 336.733 21.1335 335.667 22.3335C334.733 23.4002 332.067 24.3335 329.667 24.3335C327.267 24.3335 324.6 25.2668 323.667 26.3335C322.733 27.4002 321 28.3335 319.667 28.3335C318.333 28.3335 316.6 29.2668 315.667 30.3335C314.733 31.4002 312.067 32.3335 309.8 32.3335C307 32.3335 304.467 33.4002 302.467 35.4002C299.933 38.2002 299.8 38.7335 301.667 40.3335C302.733 41.2668 303.667 43.0002 303.667 44.3335C303.667 45.6668 304.6 48.4668 305.667 50.4668C306.733 52.6002 307.667 55.2668 307.667 56.4668C307.667 57.6668 308.6 59.4002 309.667 60.3335C310.733 61.2668 311.667 63.0002 311.667 64.3335C311.667 65.6668 312.6 67.4002 313.667 68.3335C314.733 69.2668 315.667 71.9335 315.667 74.3335C315.667 76.7335 316.6 79.4002 317.667 80.3335C318.733 81.2668 319.667 83.0002 319.667 84.3335C319.667 85.6668 320.6 87.4002 321.667 88.3335C322.733 89.2668 323.667 91.9335 323.667 94.3335C323.667 96.7335 324.6 99.4002 325.667 100.333C326.733 101.267 327.667 103 327.667 104.2C327.667 105.4 328.333 107.133 329.267 108.067C331 109.8 334.333 118.067 335.267 123.267C335.667 125.267 336.733 127.667 337.8 128.467C338.867 129.267 339.667 131 339.667 132.333C339.667 133.667 340.6 135.4 341.667 136.333C342.733 137.267 343.667 139.933 343.667 142.333C343.667 144.733 344.6 147.4 345.667 148.333C346.733 149.267 347.667 150.867 347.667 152.067C347.667 153.133 348.467 155.133 349.4 156.2C350.333 157.4 352.333 161.933 353.667 166.333C355.133 170.733 357 175.267 357.933 176.467C358.867 177.533 359.667 179.533 359.667 180.6C359.667 181.8 360.6 183.4 361.667 184.333C362.733 185.267 363.667 187.933 363.667 190.333C363.667 192.733 364.6 195.4 365.667 196.333C366.733 197.267 367.667 199 367.667 200.333C367.667 201.667 368.6 203.4 369.667 204.333C370.733 205.267 371.667 207.4 371.667 209.133C371.667 211.667 372.333 212.333 374.867 212.333C376.6 212.333 378.733 211.4 379.667 210.333C380.6 209.267 383.267 208.333 385.667 208.333C388.067 208.333 390.733 207.4 391.667 206.333C392.6 205.267 395.133 204.333 397.267 204.333C399.4 204.333 403.267 203.4 405.933 202.333C408.467 201.267 412.067 200.333 413.667 200.333C415.267 200.333 418.733 199.533 421.133 198.467C423.667 197.533 429.133 196.6 433.4 196.467C437.533 196.333 443.133 195.267 445.533 194.333C449.267 192.733 456.2 192.467 479.267 192.867C495.267 193.133 510.2 193.667 512.333 194.2C514.6 194.733 519.933 195.667 524.333 196.333C528.733 197 533.8 197.8 535.667 198.2C537.533 198.6 542.067 199.533 545.667 200.2C549.4 200.867 553.8 202.067 555.667 202.733C558.733 204.067 565.133 205.8 568.333 206.333C569.133 206.333 571.533 207.267 573.667 208.2C575.933 209.133 578.6 210.067 579.667 210.333C580.733 210.733 582.867 211.267 584.333 211.667C586.467 212.333 587.4 211.4 589.4 206.733C590.6 203.533 591.667 200.467 591.667 199.8C591.667 199.133 593.8 194.067 596.467 188.467C599.267 183 601.4 177.533 601.533 176.333C601.667 175.267 603.4 170.733 605.533 166.333C607.667 161.933 609.533 157.4 609.533 156.333C609.667 155.267 612.333 148.867 615.533 142.333C618.733 135.667 621.4 129.4 621.533 128.333C621.667 127.267 623.4 122.733 625.533 118.333C627.667 113.933 629.4 109.4 629.533 108.333C629.667 107.267 632.333 100.867 635.533 94.3335C638.733 87.6668 641.4 81.4002 641.533 80.3335C641.667 79.2668 643.4 74.7335 645.533 70.3335C647.667 65.9335 649.4 61.5335 649.4 60.4668C649.4 59.4002 651.667 54.0668 654.467 48.4668C659.933 37.2668 659.667 34.2002 653.267 33.0002C651.267 32.6002 647.933 31.4002 645.933 30.3335C643.8 29.2668 641.267 28.3335 640.2 28.3335C639.133 28.3335 635.4 27.0002 631.933 25.4002C628.467 23.9335 624.733 22.6002 623.667 22.6002C622.6 22.6002 621.133 22.2002 620.333 21.6668C619.667 21.1335 616.333 20.2002 613 19.8002C609.667 19.2668 605.8 18.3335 604.333 17.8002C597.533 15.1335 592.467 13.8002 591.4 14.4668C590.733 14.8668 589.533 14.6002 588.6 13.9335C587.267 12.8668 580.733 11.1335 575 10.3335C574.333 10.3335 572.2 9.80015 570.333 9.26682C568.467 8.86682 564.067 8.06682 560.333 7.66682C556.733 7.26682 552.2 6.60015 550.333 6.20015C534.2 2.86682 519.933 1.80015 481 1.00015C460.2 0.600152 448.867 0.866818 447.267 1.80015Z" fill="#008E3D"/>
<path d="M288.067 40.0666C286.467 40.3333 284.467 41.3999 283.667 42.4666C282.734 43.5333 281 44.3333 279.667 44.3333C278.334 44.3333 276.6 45.2666 275.667 46.3333C274.734 47.3999 273 48.3333 271.667 48.3333C270.334 48.3333 268.6 49.2666 267.667 50.3333C266.734 51.3999 265 52.3333 263.667 52.3333C262.334 52.3333 260.6 53.2666 259.667 54.3333C258.734 55.3999 257 56.3333 255.667 56.3333C254.334 56.3333 252.6 57.2666 251.667 58.3333C250.734 59.3999 249.267 60.3333 248.2 60.3333C247.267 60.3333 242.6 62.9999 237.8 66.3333C232.867 69.6666 228.467 72.3333 227.8 72.3333C226.334 72.3333 201.667 88.8666 198.734 91.6666C197.534 92.8666 194.067 95.3999 191.134 97.2666C188.067 99.1332 185.134 101.267 184.334 102.2C183.667 103 180.334 105.8 177 108.333C173.667 110.867 168.467 115.4 165.267 118.333C162.2 121.267 156.6 126.333 152.867 129.667C144.067 137.533 131.667 149.533 131.667 150.333C131.667 150.6 129.667 153 127.4 155.4C125 157.933 119.667 163.8 115.667 168.333C111.667 172.867 107.267 177.8 106.067 179.133C104.734 180.467 103.667 182.2 103.667 182.733C103.667 183.8 98.2002 191 94.0669 195.267C92.7335 196.6 91.6669 198.2 91.6669 198.733C91.6669 199.8 86.2002 206.867 82.2002 211C81.1335 212.2 78.7335 216.2 77.0002 219.8C75.2669 223.4 72.7335 227.533 71.4002 229C70.0669 230.467 67.4002 234.733 65.5335 238.733C63.6669 242.6 61.0002 247.133 59.5335 248.867C56.0669 252.733 49.0002 267.8 50.0669 268.867C50.4669 269.4 49.5335 270.867 47.9335 272.467C46.2002 273.933 45.2669 275.8 45.8002 276.467C46.2002 277.267 45.4002 279 43.8002 280.467C42.3335 281.8 41.4002 283.8 41.8002 284.867C42.2002 285.933 41.9335 287.133 41.1335 287.667C37.4002 289.933 39.9335 293.4 48.6002 297.667C53.4002 300.067 58.3335 302.067 59.5335 302.2C60.7335 302.333 66.3335 304.6 72.0669 307.4C77.8002 310.067 83.1335 312.333 83.9335 312.333C84.7335 312.333 89.9335 314.467 95.5335 317.133C101 319.933 106.467 322.067 107.667 322.2C108.734 322.333 113.267 324.067 117.667 326.2C122.067 328.333 126.6 330.067 127.667 330.2C128.734 330.333 135 333 141.667 336.2C148.2 339.4 154.467 342.067 155.667 342.2C156.734 342.333 161.267 344.067 165.667 346.2C170.067 348.333 174.6 350.067 175.667 350.2C176.734 350.333 182.334 352.6 188.067 355.4C193.8 358.067 199 360.333 199.8 360.333C200.6 360.333 203.934 361.533 207.267 363.133C210.6 364.6 213.934 365.533 214.867 365.267C215.667 364.867 220.334 356.867 225 347.533C229.667 338.067 234.867 328.867 236.6 327C238.334 325.133 239.667 323 239.667 322.2C239.667 321.4 241.4 318.6 243.667 316.2C245.8 313.667 247.667 311.267 247.667 310.6C247.667 310.067 248.734 308.467 250.067 307.133C251.267 305.8 253.8 302.733 255.667 300.467C257.534 298.2 261 294.2 263.4 291.533C265.667 289 267.667 286.733 267.667 286.333C267.667 285.667 289 264.333 289.8 264.333C290.067 264.333 291.4 263.267 292.734 261.933C296.6 258.333 301.4 254.6 305.267 252.067C307.267 250.733 309.934 248.6 311.267 247.267C315 243.533 326.2 236.333 328.467 236.333C329.534 236.333 330.734 235.4 331.134 234.333C331.667 233.267 332.6 232.333 333.267 232.333C334.067 232.333 337.267 230.467 340.6 228.333C343.8 226.067 347.267 224.333 348.2 224.333C349.267 224.333 350.734 223.4 351.667 222.333C352.6 221.267 354.334 220.333 355.534 220.333C362.2 220.2 366.067 210.6 361.667 204.867C360.6 203.533 359.667 201.4 359.667 200.2C359.667 199 358.734 197.267 357.667 196.333C356.6 195.4 355.667 192.733 355.667 190.333C355.667 187.933 354.734 185.267 353.667 184.333C352.6 183.4 351.667 181.667 351.667 180.467C351.667 179.267 351 177.533 350.067 176.6C348.334 174.867 345 166.6 344.067 161.4C343.667 159.4 342.6 157 341.534 156.2C340.467 155.4 339.667 153.667 339.667 152.333C339.667 151 338.734 149.267 337.667 148.333C336.6 147.4 335.667 144.733 335.667 142.333C335.667 139.933 334.734 137.267 333.667 136.333C332.6 135.4 331.667 133.667 331.667 132.333C331.667 131 330.734 129.267 329.667 128.333C328.6 127.4 327.667 125.667 327.667 124.333C327.667 123 326.734 120.2 325.667 118.2C324.6 116.067 323.667 113.4 323.667 112.2C323.667 111 322.734 109.267 321.667 108.333C320.6 107.4 319.667 105.667 319.667 104.333C319.667 103 318.734 101.267 317.667 100.333C316.6 99.3999 315.667 96.7332 315.667 94.3333C315.667 91.9333 314.734 89.2666 313.667 88.3333C312.6 87.3999 311.667 85.6666 311.667 84.3333C311.667 82.9999 310.734 81.2666 309.667 80.3333C308.6 79.3999 307.667 76.7332 307.667 74.3333C307.667 71.9333 306.734 69.2666 305.667 68.3333C304.6 67.3999 303.667 65.6666 303.667 64.4666C303.667 63.2666 303 61.5333 302.067 60.5999C300.334 58.8666 297 50.5999 296.067 45.2666C295.267 41.1332 292.467 39.2666 288.067 40.0666Z" fill="black"/>
<g filter="url(#filter0_d_158_288)">
<path d="M662.333 49.2667C659.933 54.0667 657.933 59 657.8 60.2C657.667 61.4001 655.8 66.2001 653.533 71.0001C651.267 75.8 648.867 81.1334 648.333 83.0001C647.8 84.8667 645.267 90.8667 642.733 96.3334C640.067 101.8 637.933 107.133 637.8 108.333C637.667 109.4 635.933 113.933 633.8 118.333C631.667 122.733 629.933 127.267 629.8 128.333C629.667 129.4 627 135.667 623.8 142.333C620.6 148.867 617.933 155.133 617.8 156.333C617.667 157.4 615.933 161.933 613.8 166.333C611.667 170.733 609.933 175.267 609.8 176.333C609.667 177.4 607.4 183 604.6 188.733C601.933 194.467 599.667 199.667 599.667 200.467C599.667 201.267 598.467 204.6 596.867 207.933C595.4 211.267 594.467 214.6 594.733 215.533C595.133 216.333 603.133 220.867 612.467 225.533C621.933 230.2 629.933 234.6 630.067 235.267C630.333 235.933 633 237.667 635.933 239.133C639 240.733 643 243.4 644.867 245.133C646.733 246.867 649 248.333 649.933 248.333C650.867 248.333 653.933 250.6 656.867 253.267C663.133 259.267 669 264.333 669.8 264.333C670.2 264.333 677.533 271.133 681.4 275C688.067 281.667 695.667 289.933 695.667 290.467C695.667 290.867 697.4 292.733 699.4 294.733C701.533 296.733 704.6 300.6 706.2 303.267C707.933 306.067 709.8 308.333 710.467 308.333C711.133 308.333 711.667 309.267 711.667 310.333C711.667 311.4 712.2 312.333 712.867 312.333C714.333 312.333 723.667 326.867 723.667 329.133C723.667 330.2 724.6 331.4 725.667 331.8C726.733 332.333 727.667 333.267 727.667 333.933C727.667 334.733 729.533 337.933 731.667 341.267C733.933 344.467 735.667 347.933 735.667 348.867C735.667 349.933 736.6 351.4 737.667 352.333C738.733 353.267 739.667 355 739.667 356.2C739.8 357.4 740.867 359.667 742.2 361.267C745.267 364.867 753.133 365.4 755.667 362.333C756.6 361.267 758.333 360.333 759.667 360.333C761 360.333 762.733 359.4 763.667 358.333C764.6 357.267 767.267 356.333 769.667 356.333C772.067 356.333 774.733 355.4 775.667 354.333C776.6 353.267 778.2 352.333 779.4 352.333C780.467 352.333 782.467 351.533 783.533 350.6C784.733 349.667 789.267 347.667 793.667 346.333C798.067 344.867 802.6 343 803.8 342.067C804.867 341.133 806.867 340.333 807.933 340.333C809.133 340.333 810.733 339.4 811.667 338.333C812.6 337.267 815.267 336.333 817.667 336.333C820.067 336.333 822.733 335.4 823.667 334.333C824.6 333.267 826.333 332.333 827.667 332.333C829 332.333 830.733 331.4 831.667 330.333C832.6 329.267 834.333 328.333 835.667 328.333C837 328.333 839.8 327.4 841.8 326.333C843.933 325.267 846.6 324.333 847.8 324.333C849 324.333 850.733 323.4 851.667 322.333C852.6 321.267 854.333 320.333 855.667 320.333C857 320.333 858.733 319.4 859.667 318.333C860.6 317.267 863.267 316.333 865.667 316.333C868.067 316.333 870.733 315.4 871.667 314.333C872.6 313.267 874.333 312.333 875.667 312.333C877 312.333 878.733 311.4 879.667 310.333C880.6 309.267 883.267 308.333 885.667 308.333C888.067 308.333 890.733 307.4 891.667 306.333C892.6 305.267 894.333 304.333 895.533 304.333C896.733 304.333 898.467 303.667 899.4 302.733C901 301.133 909 297.933 914.333 296.733C916.2 296.333 918.333 295.133 919.133 294.2C921 291.933 920.067 286.333 917.533 284.2C916.467 283.4 915.667 281.667 915.667 280.333C915.667 279 914.733 277.267 913.667 276.333C912.6 275.4 911.667 273.667 911.667 272.333C911.667 271 910.733 269.267 909.667 268.333C908.6 267.4 907.667 265.667 907.667 264.333C907.667 263 906.733 261.267 905.667 260.333C904.6 259.4 903.667 257.667 903.667 256.333C903.667 255 902.733 253.267 901.667 252.333C900.6 251.4 899.667 249.933 899.667 248.867C899.667 247.933 897 243.267 893.667 238.467C890.333 233.533 887.667 229.133 887.667 228.467C887.667 227 871.4 202.733 867.8 198.733C866.2 197.133 863.533 193.533 862.067 191C860.467 188.467 858.6 185.667 857.8 185C857 184.2 854.2 181 851.667 177.667C849.133 174.333 844.6 169.133 841.667 165.933C838.733 162.867 833.667 157.267 830.333 153.533C822.467 144.733 810.467 132.333 809.667 132.333C809.4 132.333 807 130.333 804.467 127.933C788.2 112.6 778.6 104.333 777.533 104.333C776.733 104.333 771 99.9334 764.733 94.3334C763.4 93.2667 761.8 92.3334 761.267 92.3334C760.2 92.3334 753.4 87.1334 749 83.0001C747.933 81.9334 743.933 79.5334 740.333 77.8C736.6 75.9334 732.467 73.4001 731 72.0667C729.533 70.7334 725.267 68.0667 721.267 66.2C717.4 64.3334 712.867 61.6667 711.133 60.2C707.267 56.7334 692.2 49.6667 691.133 50.7334C690.6 51.1334 689.133 50.2 687.533 48.6C686.067 46.8667 684.2 45.9334 683.533 46.4667C682.733 46.8667 681 46.0667 679.533 44.4667C678.2 43 676.2 42.0667 675.133 42.4667C674.067 42.8667 672.867 42.6 672.333 41.8C670.067 38.0667 666.6 40.6001 662.333 49.2667Z" fill="black"/>
</g>
<path d="M919.667 302.333C918.734 303.4 917 304.333 915.667 304.333C914.334 304.333 911.534 305.267 909.534 306.333C907.4 307.4 904.734 308.333 903.534 308.333C902.334 308.333 900.6 309.267 899.667 310.333C898.734 311.4 897 312.333 895.667 312.333C894.334 312.333 892.6 313.267 891.667 314.333C890.734 315.4 888.067 316.333 885.667 316.333C883.267 316.333 880.6 317.267 879.667 318.333C878.734 319.4 877 320.333 875.667 320.333C874.334 320.333 872.6 321.267 871.667 322.333C870.734 323.4 868.067 324.333 865.667 324.333C863.267 324.333 860.6 325.267 859.667 326.333C858.734 327.4 857 328.333 855.8 328.333C854.6 328.333 852.867 329 851.934 329.933C850.2 331.667 841.934 335 836.734 335.933C834.734 336.333 832.334 337.4 831.534 338.467C830.734 339.533 829 340.333 827.667 340.333C826.334 340.333 824.6 341.267 823.667 342.333C822.734 343.4 820.067 344.333 817.667 344.333C815.267 344.333 812.6 345.267 811.667 346.333C810.734 347.4 809.134 348.333 807.934 348.333C806.867 348.333 804.867 349.133 803.8 350.067C802.6 351 798.067 353 793.667 354.333C789.267 355.8 784.734 357.667 783.534 358.6C782.467 359.533 780.467 360.333 779.4 360.333C778.2 360.333 776.6 361.267 775.667 362.333C774.734 363.4 772.067 364.333 769.667 364.333C767.267 364.333 764.6 365.267 763.667 366.333C762.734 367.4 761 368.333 759.667 368.333C758.334 368.333 756.6 369.267 755.667 370.333C754.734 371.4 752.6 372.333 750.867 372.333C748.334 372.333 747.667 373 747.667 375.533C747.667 377.267 748.6 379.4 749.667 380.333C750.734 381.267 751.667 383.934 751.667 386.333C751.667 388.733 752.467 391.4 753.534 392.2C754.6 393.133 755.667 395.934 756.067 398.733C756.867 404.067 758.867 412.467 761.534 421C762.467 423.934 763.4 429.8 763.534 434.067C763.667 438.2 764.734 443.8 765.8 446.333C767.267 449.934 767.534 456.734 767.134 479.934C766.867 495.934 766.334 510.2 766.067 511.667C765.8 513.133 765.134 515.8 764.6 517.667C764.2 519.534 763.4 525.667 763 531.4C762.6 537.133 761.8 542.867 761.134 544.067C760.467 545.267 759 549.667 757.934 553.667C756.734 557.667 755.267 562.467 754.734 564.333C754.2 566.2 753.8 568.2 753.667 569C753.534 569.667 752.734 572.067 751.8 574.333C750.867 576.467 749.934 579.267 749.8 580.334C749.667 581.4 749 583.4 748.467 584.733C747.8 586.067 747.534 587.267 747.8 587.4C749.934 588.733 758.734 592.334 759.934 592.334C760.734 592.334 765.934 594.467 771.534 597.134C777 599.934 782.467 602.067 783.667 602.2C784.734 602.334 789.267 604.067 793.667 606.2C798.067 608.334 802.6 610.2 803.667 610.2C804.734 610.334 811.134 613 817.667 616.2C824.334 619.4 830.6 622.067 831.667 622.2C832.734 622.334 837.267 624.067 841.667 626.2C846.067 628.334 850.6 630.067 851.667 630.2C852.734 630.334 859.134 633 865.667 636.2C872.334 639.4 878.6 642.067 879.667 642.2C880.734 642.334 885.267 644.067 889.667 646.2C894.067 648.334 898.6 650.067 899.667 650.2C900.734 650.334 905.534 652.2 910.334 654.467C922.067 660.067 925.134 659.8 927.4 653C928.334 650.067 930.067 645.534 931.267 643C932.467 640.467 933.534 637.534 933.667 636.334C933.8 635.267 934.6 632.467 935.534 630.334C936.467 628.067 937.4 625.4 937.534 624.334C937.667 623.267 938.2 621.4 938.6 620.334C939.267 618.467 942.067 608.867 944.467 600.334C945 598.467 945.667 596.067 945.8 595C946.6 591.267 949.134 578.334 949.667 575.667C951.8 565.534 953.267 557.667 953.8 553.667C954.867 543.4 957 526.067 957.8 521C958.867 513.133 958.867 445.667 957.8 441C957.267 438.734 956.467 431.267 956.2 424.333C955.8 417.4 954.734 409.533 953.8 407C952.867 404.467 951.934 398.867 951.8 394.6C951.667 390.467 950.6 384.867 949.534 382.333C948.6 379.8 947.667 376.067 947.667 373.933C947.667 371.8 946.734 369.267 945.667 368.333C944.467 367.267 943.667 364.333 943.667 360.333C943.667 356.333 942.867 353.4 941.667 352.333C940.467 351.267 939.667 348.333 939.667 344.333C939.667 340.333 938.867 337.4 937.667 336.333C936.6 335.4 935.667 332.733 935.667 330.333C935.667 327.933 934.867 325.4 933.934 324.6C933 323.8 931.134 319.267 929.667 314.333C926.6 304.067 922.467 299 919.667 302.333Z" fill="black"/>
<path d="M33 304.333C32.3334 305.667 31.6667 307.933 31.6667 309.267C31.6667 310.733 30.7334 313 29.6667 314.467C28.6 315.8 27.6667 318.2 27.6667 319.667C27.6667 321.133 26.7334 324.067 25.6667 326.2C24.6 328.2 23.6667 331 23.6667 332.2C23.6667 333.4 22.7334 335.933 21.8 337.933C20.7334 340.067 19.4 344.467 18.8667 347.933C18.4667 351.533 17.5334 354.867 17 355.667C16.3334 356.333 15.5334 359.933 15 363.667C14.4667 367.267 13.5334 370.867 13 371.667C12.2 372.733 10.4667 379.8 9.6667 385C9.6667 385.667 9.13337 387.8 8.60003 389.667C8.20003 391.533 7.40003 395.933 7.00003 399.667C6.60003 403.267 5.93337 407.8 5.53337 409.667C1.93337 427 1.00003 441.667 0.866699 479.667C0.866699 513 1.40003 527.133 2.8667 529.4C3.2667 530.2 3.80003 535.133 3.80003 540.467C3.93337 545.667 4.73337 552.067 5.80003 554.467C6.8667 556.867 7.6667 562.467 7.6667 566.733C7.6667 572.2 8.33337 575.267 9.6667 576.333C10.8667 577.4 11.6667 580.333 11.6667 584.333C11.6667 588.333 12.4667 591.267 13.6667 592.333C14.8667 593.4 15.6667 596.333 15.6667 600.333C15.6667 604.333 16.4667 607.267 17.6667 608.333C18.8667 609.4 19.6667 612.333 19.6667 616.333C19.6667 620.333 20.4667 623.267 21.6667 624.333C22.7334 625.267 23.6667 627.933 23.6667 630.333C23.6667 632.733 24.6 635.4 25.6667 636.333C26.7334 637.267 27.6667 639 27.6667 640.333C27.6667 641.667 28.6 643.4 29.6667 644.333C30.7334 645.267 31.6667 647.933 31.6667 650.2C31.6667 653 32.7334 655.533 34.7334 657.533C37.5334 660.067 38.0667 660.2 39.6667 658.333C40.6 657.267 43.2667 656.333 45.6667 656.333C48.0667 656.333 50.7334 655.4 51.6667 654.333C52.6 653.267 54.3334 652.333 55.6667 652.333C57 652.333 58.7334 651.4 59.6667 650.333C60.6 649.267 62.3334 648.333 63.6667 648.333C65 648.333 66.7334 647.4 67.6667 646.333C68.6 645.267 71.2667 644.333 73.6667 644.333C76.0667 644.333 78.7334 643.4 79.6667 642.333C80.6 641.267 82.3334 640.333 83.6667 640.333C85 640.333 86.7334 639.4 87.6667 638.333C88.6 637.267 91.2667 636.333 93.6667 636.333C96.0667 636.333 98.7334 635.4 99.6667 634.333C100.6 633.267 102.2 632.333 103.4 632.333C104.467 632.333 106.467 631.533 107.533 630.6C108.733 629.667 113.267 627.667 117.667 626.333C122.067 624.867 126.6 623 127.8 622.067C128.867 621.133 130.867 620.333 131.933 620.333C133.133 620.333 134.733 619.4 135.667 618.333C136.6 617.267 139.267 616.333 141.667 616.333C144.067 616.333 146.733 615.4 147.667 614.333C148.6 613.267 150.333 612.333 151.667 612.333C153 612.333 154.733 611.533 155.533 610.467C156.333 609.4 158.733 608.333 160.733 607.933C165.933 607 174.2 603.667 175.933 601.933C176.867 601 178.6 600.333 179.8 600.333C181 600.333 182.733 599.4 183.667 598.333C184.6 597.267 187.267 596.333 189.667 596.333C192.067 596.333 194.733 595.4 195.667 594.333C196.6 593.267 198.333 592.333 199.667 592.333C201 592.333 202.733 591.4 203.667 590.333C204.6 589.267 206.733 588.333 208.467 588.333C211 588.333 211.667 587.667 211.667 585.133C211.667 583.4 210.733 581.267 209.667 580.333C208.6 579.4 207.667 576.733 207.667 574.333C207.667 571.933 206.867 569.267 205.8 568.467C204.733 567.533 203.667 564.733 203.267 561.933C202.467 556.6 200.467 548.2 197.8 539.667C196.867 536.733 195.933 530.867 195.8 526.6C195.667 522.467 194.733 517 193.667 514.467C192.067 510.867 191.8 503.8 192.2 480.733C192.333 464.733 193 449.8 193.533 447.667C194.067 445.4 195 439.133 195.667 433.667C196.2 428.2 197.267 421.8 198.067 419.667C198.867 417.4 200.067 413 201 409.667C201.8 406.333 203 401.533 203.8 399C204.6 396.467 205.267 393.4 205.533 392.333C205.667 391.267 206.6 388.467 207.533 386.333C208.467 384.067 209.4 381.4 209.533 380.333C209.667 379.267 210.333 377.267 210.867 375.933C211.533 374.6 211.8 373.4 211.533 373.267C209.4 371.933 200.6 368.333 199.4 368.333C198.6 368.333 193.4 366.2 187.8 363.533C182.333 360.733 176.867 358.6 175.667 358.467C174.6 358.333 170.067 356.6 165.667 354.467C161.267 352.333 156.733 350.6 155.667 350.467C154.6 350.333 148.333 347.667 141.667 344.467C135.133 341.267 128.867 338.6 127.667 338.467C126.6 338.333 122.067 336.6 117.667 334.467C113.267 332.333 108.733 330.6 107.667 330.467C106.6 330.333 101 328.067 95.2667 325.267C89.5334 322.6 84.2 320.333 83.4 320.333C82.6 320.333 77.4 318.2 71.8 315.533C66.3334 312.733 60.8667 310.6 59.6667 310.467C58.6 310.333 54.0667 308.6 49.6667 306.467C39.4 301.533 34.8667 300.867 33 304.333Z" fill="black"/>
<path d="M743.133 596.066C739.133 602.6 733.267 615.533 733.8 616.6C734.333 617.266 733.133 619.533 731.267 621.4C729.4 623.4 727.533 626.333 727 627.933C726.6 629.667 725.667 631 725 631C724.333 631 722.467 633.533 720.867 636.466C719.4 639.533 716.6 643.667 714.867 645.533C713.133 647.4 711.667 649.667 711.667 650.466C711.667 651.4 709 655 705.667 658.466C698.067 666.6 695.667 669.533 695.667 670.333C695.667 670.6 693.667 673.133 691.133 675.8C678.2 689.4 661 704.866 655.4 707.8C653.4 708.866 651.667 710.333 651.667 711C651.667 711.8 650.733 712.333 649.667 712.333C648.6 712.333 647.667 712.866 647.667 713.533C647.667 715 633.133 724.333 630.867 724.333C629.8 724.333 628.6 725.266 628.2 726.333C627.667 727.4 626.6 728.333 625.667 728.333C624.867 728.333 621.533 730.066 618.6 732.333C615.533 734.466 612.2 736.333 611.133 736.333C610.2 736.333 608.6 737.266 607.667 738.333C606.733 739.4 605 740.333 603.8 740.333C602.6 740.466 600.333 741.533 598.733 742.867C595.133 745.933 594.6 753.8 597.667 756.333C598.733 757.266 599.667 759 599.667 760.333C599.667 761.666 600.6 763.4 601.667 764.333C602.733 765.266 603.667 767.933 603.667 770.333C603.667 772.733 604.6 775.4 605.667 776.333C606.733 777.266 607.667 779 607.667 780.2C607.667 781.4 608.333 783.133 609.267 784.066C611 785.8 614.333 794.067 615.267 799.267C615.667 801.267 616.733 803.667 617.8 804.467C618.867 805.267 619.667 807 619.667 808.333C619.667 809.667 620.6 811.4 621.667 812.333C622.733 813.267 623.667 815.933 623.667 818.333C623.667 820.733 624.6 823.4 625.667 824.333C626.733 825.267 627.667 827 627.667 828.333C627.667 829.667 628.6 831.4 629.667 832.333C630.733 833.267 631.667 835 631.667 836.333C631.667 837.667 632.6 840.467 633.667 842.467C634.733 844.6 635.667 847.267 635.667 848.467C635.667 849.667 636.6 851.4 637.667 852.333C638.733 853.267 639.667 855 639.667 856.333C639.667 857.667 640.6 859.4 641.667 860.333C642.733 861.267 643.667 863.933 643.667 866.333C643.667 868.733 644.6 871.4 645.667 872.333C646.733 873.267 647.667 875 647.667 876.333C647.667 877.667 648.6 879.4 649.667 880.333C650.733 881.267 651.667 883.933 651.667 886.333C651.667 888.733 652.6 891.4 653.667 892.333C654.733 893.267 655.667 895 655.667 896.2C655.667 897.4 656.333 899.133 657.267 900.067C658.867 901.667 662.067 909.667 663.267 915C663.667 916.867 664.867 919 665.8 919.8C668.067 921.667 673.667 920.733 675.8 918.2C676.6 917.133 678.333 916.333 679.667 916.333C681 916.333 682.733 915.4 683.667 914.333C684.6 913.267 686.333 912.333 687.667 912.333C689 912.333 690.733 911.4 691.667 910.333C692.6 909.267 694.333 908.333 695.667 908.333C697 908.333 698.733 907.4 699.667 906.333C700.6 905.267 702.333 904.333 703.667 904.333C705 904.333 706.733 903.4 707.667 902.333C708.6 901.267 710.067 900.333 711.133 900.333C712.067 900.333 716.733 897.667 721.533 894.333C726.467 891 730.867 888.333 731.533 888.333C733 888.333 757.267 872.067 761.267 868.467C762.867 866.867 766.467 864.2 769 862.733C771.533 861.133 774.333 859.267 775 858.467C775.8 857.667 779 854.867 782.333 852.333C785.667 849.8 790.867 845.267 794.067 842.333C797.133 839.4 802.733 834.333 806.467 831C815.267 823.133 827.667 811.133 827.667 810.333C827.667 810.067 829.667 807.667 832.067 805.267C845.4 791.267 855 780.2 855.933 777.8C856.733 775.266 860.467 770.6 865.4 765.4C866.6 764.066 867.667 762.466 867.667 761.933C867.667 760.867 872.867 754.066 877 749.666C878.067 748.6 880.467 744.6 882.2 741C884.067 737.266 886.6 733.133 887.933 731.8C889.267 730.333 891.667 726.466 893.267 723.133C894.867 719.8 897.667 715 899.4 712.6C903.533 707.133 910.333 692.866 909.267 691.8C908.867 691.266 909.8 689.8 911.4 688.2C913.133 686.733 914.067 684.866 913.533 684.2C913.133 683.4 913.933 681.666 915.533 680.2C917 678.866 917.933 676.866 917.533 675.8C917.133 674.733 917.4 673.533 918.2 673C921.933 670.733 919.4 667.266 910.733 663C905.933 660.6 901 658.466 899.8 658.466C898.6 658.333 893.8 656.333 889 654.066C884.2 651.8 878.867 649.533 877 649C875.133 648.466 869.133 645.933 863.667 643.4C858.2 640.733 852.867 638.6 851.667 638.466C850.6 638.333 846.067 636.6 841.667 634.466C837.267 632.333 832.733 630.6 831.667 630.466C830.6 630.333 824.333 627.666 817.667 624.466C811.133 621.266 804.867 618.6 803.667 618.466C802.6 618.333 798.067 616.6 793.667 614.466C789.267 612.333 784.733 610.6 783.667 610.466C782.6 610.333 777 608.066 771.267 605.266C765.533 602.6 760.2 600.333 759.267 600.333C758.333 600.2 755.267 599.133 752.333 597.666C746.467 594.866 744.2 594.466 743.133 596.066Z" fill="black"/>
<g filter="url(#filter1_d_158_288)">
<path d="M203.667 598.333C202.733 599.4 201 600.333 199.667 600.333C198.333 600.333 196.6 601.266 195.667 602.333C194.733 603.4 192.067 604.333 189.667 604.333C187.267 604.333 184.6 605.266 183.667 606.333C182.733 607.4 181 608.333 179.8 608.333C178.6 608.333 176.867 609 175.933 609.933C174.2 611.666 165.933 615 160.733 615.933C158.733 616.333 156.333 617.4 155.533 618.466C154.733 619.533 153 620.333 151.667 620.333C150.333 620.333 148.6 621.266 147.667 622.333C146.733 623.4 144.067 624.333 141.667 624.333C139.267 624.333 136.6 625.266 135.667 626.333C134.733 627.4 133.133 628.333 131.933 628.333C130.867 628.333 128.867 629.133 127.8 630.066C126.6 631 122.067 633 117.667 634.333C113.267 635.8 108.733 637.666 107.533 638.6C106.467 639.533 104.467 640.333 103.4 640.333C102.2 640.333 100.6 641.266 99.6668 642.333C98.7335 643.4 96.0668 644.333 93.6668 644.333C91.2668 644.333 88.6002 645.266 87.6668 646.333C86.7335 647.4 85.0002 648.333 83.6668 648.333C82.3335 648.333 80.6002 649.266 79.6668 650.333C78.7335 651.4 76.0668 652.333 73.6668 652.333C71.2668 652.333 68.6002 653.266 67.6668 654.333C66.7335 655.4 65.0002 656.333 63.6668 656.333C62.3335 656.333 60.6002 657.266 59.6668 658.333C58.7335 659.4 57.0002 660.333 55.6668 660.333C54.3335 660.333 52.6002 661.266 51.6668 662.333C50.7335 663.4 48.0668 664.333 45.5335 664.333C42.8668 664.333 40.6001 665.133 39.9335 666.466C38.4668 669.133 39.4001 674.466 41.8001 676.466C42.8668 677.266 43.6668 679 43.6668 680.333C43.6668 681.666 44.6001 683.4 45.6668 684.333C46.7335 685.266 47.6668 687 47.6668 688.333C47.6668 689.666 48.6002 691.4 49.6668 692.333C50.7335 693.266 51.6668 695 51.6668 696.333C51.6668 697.666 52.6002 699.4 53.6668 700.333C54.7335 701.266 55.6668 703 55.6668 704.333C55.6668 705.666 56.6002 707.4 57.6668 708.333C58.7335 709.266 59.6668 710.733 59.6668 711.8C59.6668 712.733 62.3335 717.4 65.6668 722.2C69.0002 727.133 71.6668 731.533 71.6668 732.2C71.6668 733.8 87.9335 758.066 91.6668 761.933C93.2668 763.533 96.0668 767.533 97.9335 770.6C99.8002 773.8 101.667 776.333 102.067 776.333C102.6 776.333 104.467 778.6 106.333 781.4C108.067 784.066 112.6 789.533 116.333 793.266C119.933 797.133 125.667 803.4 129 807.133C136.733 815.8 148.867 828.333 149.667 828.333C150.333 828.333 154.733 832.466 169.533 846.6C175 851.933 180.067 856.333 180.867 856.333C182.6 856.333 194.733 865.4 195.4 867.133C195.667 867.8 196.6 868.333 197.533 868.333C199 868.333 205.267 872.866 210.333 877.666C211.4 878.733 215.4 881.133 219 882.866C222.733 884.733 226.867 887.266 228.333 888.6C229.8 889.933 234.067 892.6 238.067 894.466C241.933 896.333 246.467 899 248.2 900.466C252.067 903.933 267.133 911 268.2 909.933C268.733 909.533 270.2 910.466 271.8 912.066C273.267 913.8 275.133 914.733 275.8 914.2C276.6 913.8 278.333 914.6 279.8 916.2C281.133 917.666 283.133 918.6 284.2 918.2C285.267 917.8 286.467 918.066 287 918.866C289.267 922.6 292.733 920.066 297 911.4C299.4 906.6 301.4 901.666 301.534 900.466C301.667 899.266 303.934 893.666 306.733 887.933C309.4 882.2 311.667 876.866 311.667 876.066C311.667 875.266 313.8 870.066 316.467 864.466C319.267 859 321.4 853.533 321.534 852.333C321.667 851.266 323.4 846.733 325.534 842.333C327.667 837.933 329.4 833.4 329.534 832.333C329.667 831.266 332.334 825 335.534 818.333C338.734 811.8 341.4 805.533 341.534 804.333C341.667 803.266 343.4 798.733 345.534 794.333C347.667 789.933 349.4 785.4 349.534 784.333C349.667 783.266 352.334 776.866 355.534 770.333C358.734 763.666 361.4 757.4 361.534 756.333C361.667 755.266 362.6 752.6 363.534 750.466C364.334 748.333 364.867 745.8 364.467 745C363.8 743.133 346.6 734.6 343.667 734.6C342.6 734.6 340.2 733.266 338.334 731.666C336.467 729.933 333.667 728.2 332.067 727.666C330.333 727.266 329 726.333 329 725.666C329 725 326.467 723.133 323.534 721.533C320.467 720.066 316.333 717.266 314.467 715.533C312.6 713.8 310.6 712.333 310.067 712.333C309.4 712.333 307.934 711.266 306.467 709.933C305.133 708.733 301.934 706.2 299.534 704.333C297.133 702.466 294.067 699.933 292.733 698.6C291.4 697.4 290.067 696.333 289.667 696.333C289.133 696.333 279.933 687.133 263.667 670.066C259.533 665.8 253.267 657.8 249.667 652.333C246.067 646.866 241.4 640.6 239.4 638.466C237.4 636.333 233 628.866 229.533 621.8C226.067 614.733 222.333 608.466 221.4 607.933C220.467 607.4 219.667 605.8 219.667 604.6C219.533 603.4 218.467 601 217.133 599.266C214.067 595.8 206.2 595.266 203.667 598.333Z" fill="black"/>
<path d="M289.024 920.005C289.54 920.115 290.173 919.96 290.952 919.382C292.431 918.283 294.185 915.841 296.155 911.972L296.551 911.179L296.553 911.176C297.748 908.786 298.843 906.364 299.655 904.393C300.061 903.407 300.394 902.537 300.633 901.843C300.817 901.31 300.937 900.904 300.997 900.635L301.037 900.411C301.077 900.045 301.265 899.418 301.537 898.643C301.816 897.848 302.203 896.847 302.671 895.709C303.608 893.435 304.877 890.596 306.28 887.724V887.723C307.611 884.86 308.842 882.099 309.739 879.957C310.187 878.885 310.551 877.972 310.801 877.281C310.926 876.935 311.021 876.651 311.083 876.433C311.115 876.323 311.137 876.235 311.151 876.168C311.158 876.135 311.162 876.11 311.165 876.091C311.166 876.076 311.166 876.068 311.167 876.066C311.167 875.891 311.219 875.662 311.282 875.435C311.35 875.19 311.447 874.887 311.57 874.538C311.816 873.839 312.17 872.93 312.605 871.876C313.475 869.767 314.679 867.058 316.015 864.252L316.018 864.245L316.022 864.238C317.415 861.518 318.643 858.798 319.538 856.61C319.985 855.517 320.348 854.559 320.606 853.805C320.804 853.225 320.933 852.79 320.996 852.508L321.037 852.278L321.038 852.271C321.078 851.949 321.227 851.422 321.44 850.781C321.658 850.126 321.958 849.313 322.319 848.399C322.95 846.8 323.772 844.881 324.686 842.945L325.083 842.115C326.144 839.927 327.107 837.705 327.819 835.899C328.175 834.997 328.467 834.201 328.678 833.568C328.84 833.083 328.946 832.715 329 832.472L329.038 832.271C329.061 832.088 329.13 831.833 329.222 831.546C329.318 831.248 329.449 830.881 329.61 830.456C329.932 829.605 330.38 828.506 330.923 827.236C331.738 825.331 332.769 823.032 333.91 820.593L335.083 818.117L335.084 818.113C336.681 814.853 338.145 811.661 339.224 809.137C339.764 807.874 340.206 806.782 340.521 805.934C340.764 805.28 340.918 804.803 340.991 804.51L341.037 804.278L341.038 804.271C341.078 803.949 341.227 803.422 341.44 802.781C341.658 802.126 341.958 801.313 342.319 800.399C343.04 798.572 344.011 796.327 345.083 794.115C346.144 791.927 347.107 789.705 347.819 787.899C348.175 786.997 348.467 786.201 348.678 785.568C348.84 785.083 348.946 784.715 349 784.472L349.038 784.271C349.06 784.088 349.13 783.833 349.222 783.542C349.318 783.241 349.448 782.87 349.609 782.439C349.931 781.578 350.38 780.466 350.923 779.188C352.01 776.63 353.48 773.391 355.083 770.118V770.117C356.68 766.789 358.144 763.562 359.224 761.036C359.764 759.773 360.207 758.689 360.522 757.856C360.68 757.44 360.805 757.09 360.893 756.814C360.984 756.53 361.027 756.354 361.038 756.271C361.111 755.681 361.394 754.703 361.76 753.638C362.128 752.567 362.596 751.364 363.064 750.291H363.065C363.456 749.248 363.781 748.109 363.958 747.143C364.047 746.659 364.096 746.229 364.102 745.883C364.108 745.519 364.064 745.312 364.02 745.224L364.006 745.196L363.996 745.168C363.994 745.165 363.985 745.143 363.955 745.103C363.921 745.057 363.87 744.998 363.8 744.927C363.659 744.784 363.459 744.613 363.199 744.414C362.679 744.018 361.958 743.542 361.088 743.015C359.352 741.962 357.061 740.726 354.694 739.547C352.327 738.368 349.892 737.249 347.872 736.426C346.861 736.014 345.96 735.679 345.225 735.447C344.472 735.21 343.948 735.1 343.667 735.1C343.312 735.1 342.896 734.992 342.472 734.835C342.039 734.674 341.557 734.446 341.059 734.171C340.062 733.621 338.967 732.868 338.008 732.046L338 732.04L337.994 732.033C336.168 730.338 333.435 728.654 331.918 728.145C331.015 727.932 330.204 727.582 329.606 727.183C329.303 726.981 329.04 726.757 328.847 726.519C328.667 726.297 328.514 726.018 328.502 725.704C328.5 725.697 328.49 725.673 328.463 725.631C328.413 725.552 328.328 725.445 328.199 725.312C327.942 725.045 327.557 724.717 327.067 724.35C326.094 723.62 324.756 722.771 323.312 721.982C320.4 720.589 316.551 718.018 314.51 716.243L314.126 715.899C313.205 715.044 312.254 714.257 311.472 713.688C311.08 713.402 310.74 713.176 310.471 713.024C310.337 712.949 310.229 712.896 310.148 712.864C310.056 712.828 310.037 712.833 310.067 712.833C309.787 712.833 309.488 712.728 309.214 712.598C308.928 712.462 308.613 712.271 308.285 712.046C307.626 711.596 306.875 710.98 306.132 710.305C305.144 709.416 303.106 707.775 301.134 706.222L299.226 704.728C297.126 703.094 294.499 700.938 292.965 699.515L292.399 698.972C291.737 698.376 291.082 697.82 290.548 697.415C290.28 697.212 290.052 697.054 289.874 696.949C289.785 696.897 289.717 696.864 289.67 696.845C289.614 696.822 289.62 696.833 289.667 696.833C289.514 696.833 289.391 696.766 289.356 696.747C289.296 696.715 289.235 696.674 289.176 696.633C289.058 696.549 288.911 696.431 288.74 696.285C288.395 695.992 287.921 695.559 287.323 694.992C286.126 693.858 284.413 692.17 282.212 689.952C277.81 685.516 271.441 678.947 263.308 670.414C259.409 666.389 253.64 659.084 249.957 653.665L249.25 652.608C245.653 647.146 241.005 640.909 239.036 638.809C237.993 637.696 236.367 635.249 234.586 632.237C233.02 629.588 231.314 626.466 229.747 623.353L229.084 622.02C227.356 618.496 225.562 615.174 224.086 612.67C223.348 611.417 222.692 610.375 222.167 609.616C221.903 609.236 221.677 608.934 221.493 608.714C221.4 608.604 221.322 608.519 221.259 608.458C221.228 608.428 221.203 608.405 221.183 608.39C221.173 608.382 221.165 608.376 221.16 608.372L221.152 608.367C220.568 608.034 220.078 607.406 219.739 606.745C219.404 606.093 219.179 605.335 219.168 604.649C219.109 604.13 218.838 603.291 218.397 602.344C217.962 601.409 217.382 600.415 216.746 599.585C215.328 597.994 212.751 597.026 210.166 596.849C208.88 596.76 207.623 596.87 206.546 597.179C205.467 597.488 204.601 597.987 204.052 598.651L204.047 598.657L204.043 598.662L203.84 598.881C203.347 599.383 202.712 599.837 202.044 600.179C201.285 600.567 200.438 600.833 199.667 600.833C199.105 600.833 198.418 601.033 197.745 601.378C197.158 601.678 196.615 602.071 196.208 602.484L196.043 602.662C195.49 603.295 194.49 603.831 193.377 604.207C192.248 604.589 190.926 604.833 189.667 604.833C188.526 604.833 187.314 605.055 186.277 605.406C185.354 605.718 184.627 606.113 184.205 606.498L184.043 606.662C183.529 607.25 182.81 607.786 182.066 608.176C181.329 608.562 180.513 608.833 179.8 608.833C179.282 608.833 178.613 608.981 177.955 609.247C177.378 609.48 176.844 609.791 176.448 610.137L176.287 610.287C175.794 610.78 174.891 611.342 173.789 611.914C172.67 612.495 171.296 613.11 169.818 613.697C166.87 614.87 163.474 615.948 160.831 616.424H160.832C159.873 616.616 158.812 616.968 157.898 617.401C157.082 617.788 156.438 618.212 156.073 618.602L155.933 618.767C155.471 619.383 154.764 619.894 154.015 620.251C153.265 620.608 152.424 620.833 151.667 620.833C151.105 620.833 150.418 621.033 149.745 621.378C149.158 621.678 148.615 622.071 148.208 622.484L148.043 622.662C147.49 623.295 146.49 623.831 145.377 624.207C144.248 624.589 142.926 624.833 141.667 624.833C140.526 624.833 139.314 625.055 138.277 625.406C137.354 625.718 136.627 626.113 136.205 626.498L136.043 626.662C135.535 627.243 134.854 627.779 134.141 628.171C133.435 628.559 132.649 628.833 131.933 628.833C131.496 628.833 130.801 629.005 130.058 629.312C129.323 629.615 128.609 630.023 128.129 630.442L128.119 630.452L128.107 630.461L127.823 630.664C127.072 631.162 125.73 631.826 124.13 632.51C122.286 633.298 120.04 634.136 117.826 634.808C115.636 635.538 113.414 636.367 111.593 637.128C110.683 637.509 109.877 637.871 109.227 638.193C108.574 638.518 108.107 638.789 107.847 638.989C107.261 639.498 106.449 639.951 105.658 640.278C104.867 640.605 104.029 640.833 103.4 640.833C102.916 640.833 102.301 641.026 101.674 641.371C101.132 641.67 100.615 642.063 100.209 642.481L100.043 642.662C99.4901 643.295 98.4898 643.831 97.3774 644.207C96.2478 644.589 94.9264 644.833 93.6665 644.833C92.5265 644.833 91.3138 645.055 90.2769 645.406C89.3544 645.718 88.6266 646.113 88.2046 646.498L88.0435 646.662C87.5283 647.251 86.8076 647.788 86.0444 648.179C85.2851 648.567 84.4385 648.833 83.6665 648.833C83.1053 648.833 82.4184 649.033 81.7446 649.378C81.1581 649.678 80.6152 650.071 80.2085 650.484L80.0435 650.662C79.4901 651.295 78.4898 651.831 77.3774 652.207C76.2478 652.589 74.9264 652.833 73.6665 652.833C72.5265 652.833 71.3138 653.055 70.2769 653.406C69.3544 653.718 68.6266 654.113 68.2046 654.498L68.0435 654.662C67.5283 655.251 66.8076 655.788 66.0444 656.179C65.2851 656.567 64.4385 656.833 63.6665 656.833C63.1053 656.833 62.4184 657.033 61.7446 657.378C61.1581 657.678 60.6152 658.071 60.2085 658.484L59.8403 658.881C59.347 659.383 58.7121 659.837 58.0444 660.179C57.2851 660.567 56.4385 660.833 55.6665 660.833C55.1053 660.833 54.4184 661.033 53.7446 661.378C53.1581 661.678 52.6152 662.071 52.2085 662.484L52.0435 662.662C51.4895 663.295 50.488 663.83 49.3579 664.207C48.2105 664.589 46.8575 664.833 45.5337 664.833C44.2461 664.833 43.0734 665.027 42.1577 665.368C41.2295 665.714 40.6327 666.186 40.3804 666.69L40.3765 666.699L40.3716 666.707L40.2544 666.938C39.699 668.133 39.5905 669.885 39.9087 671.627C40.248 673.485 41.0467 675.187 42.1206 676.082L42.1196 676.083C42.7266 676.545 43.2316 677.244 43.5845 677.984C43.9419 678.735 44.1665 679.576 44.1665 680.333C44.1665 680.894 44.3676 681.582 44.7124 682.256C45.0124 682.842 45.4045 683.384 45.8179 683.791L45.9956 683.957C46.5843 684.472 47.1218 685.192 47.5122 685.955C47.9007 686.714 48.1665 687.561 48.1665 688.333C48.1665 688.894 48.3676 689.582 48.7124 690.256C49.0552 690.926 49.5179 691.539 49.9956 691.957C50.5843 692.472 51.1218 693.192 51.5122 693.955C51.9007 694.714 52.1665 695.561 52.1665 696.333C52.1665 696.894 52.3676 697.582 52.7124 698.256C53.0552 698.926 53.5179 699.539 53.9956 699.957C54.5843 700.472 55.1218 701.192 55.5122 701.955C55.9007 702.714 56.1665 703.561 56.1665 704.333C56.1665 704.894 56.3676 705.582 56.7124 706.256C57.0124 706.842 57.4045 707.384 57.8179 707.791L57.9956 707.957C58.5687 708.458 59.1031 709.099 59.4966 709.761C59.8841 710.412 60.1665 711.138 60.1665 711.8C60.1665 711.8 60.1671 711.802 60.1675 711.807C60.1679 711.812 60.1681 711.819 60.1694 711.828C60.1721 711.847 60.1766 711.872 60.1841 711.903C60.1992 711.968 60.2235 712.05 60.2593 712.152C60.331 712.357 60.4413 712.617 60.5884 712.931C60.8823 713.557 61.312 714.365 61.8501 715.301C62.7909 716.936 64.0512 718.943 65.4634 721.021L66.0776 721.915L66.0815 721.92C67.7515 724.391 69.2562 726.732 70.3452 728.542C70.8892 729.446 71.3329 730.223 71.6421 730.82C71.7962 731.118 71.9209 731.379 72.0083 731.592C72.0519 731.698 72.0897 731.8 72.1167 731.893C72.1415 731.978 72.1665 732.088 72.1665 732.2C72.1665 732.166 72.1606 732.174 72.188 732.257C72.2115 732.327 72.2499 732.425 72.3062 732.55C72.4184 732.799 72.5877 733.131 72.811 733.538C73.2569 734.351 73.902 735.437 74.6919 736.714C76.2708 739.267 78.4175 742.566 80.6821 745.938C82.9465 749.309 85.3266 752.751 87.3726 755.589C89.4272 758.439 91.123 760.65 92.0269 761.586L92.0259 761.587C93.4662 763.03 95.806 766.3 97.6187 769.149L98.3608 770.34L98.3657 770.348C99.2924 771.936 100.216 773.356 100.955 774.373C101.325 774.883 101.642 775.283 101.885 775.552C102.008 775.687 102.102 775.778 102.167 775.83C102.174 775.836 102.18 775.841 102.185 775.845C102.352 775.873 102.496 775.952 102.595 776.015C102.735 776.104 102.883 776.224 103.034 776.362C103.336 776.64 103.694 777.03 104.083 777.496C104.67 778.197 105.348 779.093 106.046 780.092L106.75 781.122L106.752 781.127C108.461 783.756 112.97 789.196 116.687 792.913L116.7 792.926C119.851 796.311 124.636 801.534 128.018 805.29L129.374 806.8C133.235 811.127 138.196 816.422 142.292 820.635C144.34 822.741 146.168 824.574 147.533 825.878C148.216 826.531 148.778 827.046 149.19 827.396C149.397 827.572 149.558 827.7 149.673 827.78C149.716 827.81 149.748 827.83 149.769 827.842C149.88 827.858 149.978 827.897 150.048 827.93C150.152 827.978 150.263 828.044 150.38 828.121C150.615 828.276 150.916 828.506 151.29 828.814C152.039 829.432 153.122 830.398 154.639 831.799C156.917 833.901 160.189 836.998 164.803 841.396L169.878 846.238L169.882 846.242C172.611 848.904 175.237 851.33 177.277 853.088C178.298 853.968 179.166 854.675 179.824 855.16C180.154 855.403 180.422 855.584 180.625 855.701C180.726 855.76 180.803 855.798 180.856 855.819C180.896 855.836 180.909 855.837 180.901 855.836C181.089 855.842 181.292 855.898 181.479 855.966C181.689 856.042 181.928 856.149 182.187 856.279C182.706 856.541 183.34 856.911 184.042 857.354C185.448 858.24 187.159 859.436 188.833 860.683C190.506 861.929 192.149 863.233 193.419 864.337C194.054 864.888 194.602 865.396 195.015 865.824C195.222 866.038 195.4 866.239 195.541 866.419C195.674 866.59 195.795 866.772 195.864 866.948L195.865 866.947C195.943 867.143 196.144 867.368 196.462 867.548C196.775 867.725 197.158 867.833 197.534 867.833C197.82 867.833 198.154 867.937 198.488 868.075C198.836 868.22 199.241 868.427 199.688 868.683C200.582 869.195 201.678 869.923 202.877 870.796C204.978 872.324 207.423 874.312 209.708 876.402L210.677 877.304L210.687 877.312C211.17 877.796 212.385 878.634 213.974 879.588C215.349 880.413 216.965 881.301 218.543 882.086L219.217 882.416L219.224 882.419C221.104 883.359 223.084 884.466 224.779 885.507C226.254 886.412 227.536 887.282 228.35 887.954L228.669 888.229C229.993 889.433 233.781 891.83 237.53 893.656L238.278 894.014L238.285 894.017C242.159 895.887 246.739 898.576 248.523 900.085L248.529 900.09L248.534 900.094C249.459 900.923 251.086 901.994 253.055 903.125C255.015 904.251 257.282 905.419 259.463 906.447C261.646 907.476 263.733 908.36 265.333 908.919C266.136 909.199 266.8 909.392 267.286 909.483C267.53 909.529 267.707 909.545 267.825 909.541C267.862 909.54 267.886 909.535 267.901 909.532C268.207 909.303 268.578 909.315 268.877 909.386C269.186 909.459 269.521 909.618 269.859 909.822C270.54 910.234 271.339 910.898 272.154 911.713L272.168 911.728L272.182 911.743C272.88 912.568 273.664 913.191 274.332 913.54C274.667 913.715 274.952 913.811 275.167 913.84C275.389 913.87 275.471 913.823 275.488 913.81L275.529 913.776L275.577 913.753C275.899 913.592 276.271 913.571 276.629 913.624C276.992 913.677 277.38 913.81 277.77 914.001C278.454 914.335 279.19 914.867 279.877 915.557L280.168 915.862L280.17 915.863C280.792 916.548 281.571 917.107 282.308 917.445C283.072 917.796 283.683 917.86 284.025 917.731C285.24 917.276 286.717 917.54 287.417 918.589L287.422 918.598L287.427 918.607C287.957 919.481 288.502 919.893 289.024 920.005Z" stroke="black"/>
</g>
<path d="M369.8 755.267C368.467 759.133 365.267 766.867 362.6 772.333C360.067 777.8 357.934 783.133 357.8 784.333C357.667 785.4 355.934 789.933 353.8 794.333C351.667 798.733 349.934 803.267 349.8 804.333C349.667 805.4 347 811.667 343.8 818.333C340.6 824.867 337.934 831.133 337.8 832.333C337.667 833.4 335.934 837.933 333.8 842.333C331.667 846.733 329.934 851.267 329.8 852.333C329.667 853.4 327.4 859 324.6 864.733C321.934 870.467 319.667 875.8 319.667 876.6C319.667 877.4 317.534 882.6 314.867 888.2C312.067 893.667 309.934 899.133 309.8 900.333C309.667 901.4 307.8 906.2 305.534 911C300.2 921.933 300.334 925.8 305.667 927.4C307.934 928.067 311.267 929.533 313.267 930.467C315.134 931.533 317.8 932.333 319 932.333C320.2 932.333 323.934 933.667 327.4 935.267C330.867 936.733 334.6 938.067 335.667 938.067C336.734 938.067 338.334 938.467 339 939C339.8 939.667 343.4 940.467 347 941C350.734 941.533 354.334 942.467 355 943C355.8 943.667 359.4 944.467 363 945C366.734 945.533 370.334 946.467 371 947C371.8 947.533 374.734 948.467 377.667 949C380.6 949.533 383.934 950.333 385 950.467C386.067 950.733 390.867 951.533 395.667 952.2C400.467 953 406.2 953.933 408.334 954.333C426.334 957.933 441.8 959 481 959.133C512.467 959.133 526.467 958.6 528.734 957.133C529.534 956.733 534.6 956.2 540.2 956.2C546.467 956.067 550.734 955.4 551.667 954.467C552.467 953.4 556.734 952.733 562.734 952.6C568.2 952.467 574.734 951.4 577.4 950.333C580.067 949.267 583.934 948.333 586.067 948.333C588.2 948.333 590.734 947.4 591.667 946.333C592.734 945.133 595.667 944.333 599.667 944.333C603.667 944.333 606.6 943.533 607.667 942.333C608.734 941.133 611.667 940.333 615.667 940.333C619.667 940.333 622.6 939.533 623.667 938.333C624.6 937.267 627.134 936.333 629.4 936.333C631.667 936.333 634.467 935.533 635.534 934.6C636.734 933.667 641.267 931.667 645.667 930.333C650.067 928.867 655 926.6 656.6 925.133C659.4 922.867 659.4 922.333 657.667 920.333C656.6 919.133 655.667 917.133 655.667 916.067C655.667 914.867 654.734 912.2 653.667 910.2C652.6 908.067 651.667 905.4 651.667 904.2C651.667 903 650.734 901.267 649.667 900.333C648.6 899.4 647.667 897.667 647.667 896.333C647.667 895 646.734 893.267 645.667 892.333C644.6 891.4 643.667 888.733 643.667 886.333C643.667 883.933 642.734 881.267 641.667 880.333C640.6 879.4 639.667 877.667 639.667 876.333C639.667 875 638.734 873.267 637.667 872.333C636.6 871.4 635.667 868.733 635.667 866.333C635.667 863.933 634.734 861.267 633.667 860.333C632.6 859.4 631.667 857.667 631.667 856.467C631.667 855.267 631 853.533 630.067 852.6C628.334 850.867 625 842.6 624.067 837.4C623.667 835.4 622.6 833 621.534 832.2C620.467 831.4 619.667 829.667 619.667 828.333C619.667 827 618.734 825.267 617.667 824.333C616.6 823.4 615.667 820.733 615.667 818.333C615.667 815.933 614.734 813.267 613.667 812.333C612.6 811.4 611.667 809.667 611.667 808.333C611.667 807 610.734 805.267 609.667 804.333C608.6 803.4 607.667 801.667 607.667 800.333C607.667 799 606.734 796.2 605.667 794.2C604.6 792.067 603.667 789.4 603.667 788.2C603.667 787 602.734 785.267 601.667 784.333C600.6 783.4 599.667 781.667 599.667 780.333C599.667 779 598.734 777.267 597.667 776.333C596.6 775.4 595.667 772.733 595.667 770.333C595.667 767.933 594.734 765.267 593.667 764.333C592.6 763.4 591.667 761.667 591.667 760.333C591.667 759 590.734 757.267 589.667 756.333C588.6 755.4 587.667 753.267 587.667 751.533C587.667 749 587 748.333 584.467 748.333C582.734 748.333 580.6 749.267 579.667 750.333C578.734 751.4 576.067 752.333 573.667 752.333C571.267 752.333 568.6 753.267 567.667 754.333C566.734 755.4 564.2 756.333 562.067 756.333C559.934 756.333 556.067 757.267 553.4 758.333C550.867 759.4 547.267 760.333 545.667 760.333C544.067 760.333 540.6 761.133 538.2 762.2C535.667 763.133 530.2 764.067 525.934 764.2C521.8 764.333 516.2 765.4 513.8 766.333C510.067 767.933 503.134 768.2 480.067 767.8C464.067 767.533 449.267 767 447 766.467C444.867 765.933 439.4 765 435 764.333C430.6 763.667 425.534 762.867 423.667 762.467C421.8 762.067 417.4 761.133 413.667 760.467C410.067 759.8 405.534 758.6 403.667 757.933C400.6 756.6 394.2 754.867 391 754.333C390.334 754.333 387.934 753.4 385.667 752.467C383.534 751.4 380.6 750.733 379.4 750.733C378.067 750.733 376.734 750.333 376.334 749.533C374.467 746.6 372.067 748.867 369.8 755.267Z" fill="black"/>
<defs>
<filter id="filter0_d_158_288" x="590.688" y="40.1284" width="333.429" height="332.208" filterUnits="userSpaceOnUse" color-interpolation-filters="sRGB">
<feFlood flood-opacity="0" result="BackgroundImageFix"/>
<feColorMatrix in="SourceAlpha" type="matrix" values="0 0 0 0 0 0 0 0 0 0 0 0 0 0 0 0 0 0 127 0" result="hardAlpha"/>
<feOffset dy="4"/>
<feGaussianBlur stdDeviation="2"/>
<feComposite in2="hardAlpha" operator="out"/>
<feColorMatrix type="matrix" values="0 0 0 0 0 0 0 0 0 0 0 0 0 0 0 0 0 0 0.25 0"/>
<feBlend mode="normal" in2="BackgroundImageFix" result="effect1_dropShadow_158_288"/>
<feBlend mode="normal" in="SourceGraphic" in2="effect1_dropShadow_158_288" result="shape"/>
</filter>
<filter id="filter1_d_158_288" x="35.2319" y="596.319" width="333.371" height="332.219" filterUnits="userSpaceOnUse" color-interpolation-filters="sRGB">
<feFlood flood-opacity="0" result="BackgroundImageFix"/>
<feColorMatrix in="SourceAlpha" type="matrix" values="0 0 0 0 0 0 0 0 0 0 0 0 0 0 0 0 0 0 127 0" result="hardAlpha"/>
<feOffset dy="4"/>
<feGaussianBlur stdDeviation="2"/>
<feComposite in2="hardAlpha" operator="out"/>
<feColorMatrix type="matrix" values="0 0 0 0 0 0 0 0 0 0 0 0 0 0 0 0 0 0 0.25 0"/>
<feBlend mode="normal" in2="BackgroundImageFix" result="effect1_dropShadow_158_288"/>
<feBlend mode="normal" in="SourceGraphic" in2="effect1_dropShadow_158_288" result="shape"/>
</filter>
</defs>
</svg>
