<svg width="115" height="56" viewBox="0 0 115 56" fill="none" xmlns="http://www.w3.org/2000/svg">
<g clip-path="url(#clip0_172_277)">
<path d="M115 32.3319C115 32.3319 68.4147 -33.7891 1.73371 23.0807C1.73371 23.0807 -1.31077 25.8114 0.667733 29.2991C3.16142 33.6958 9.19376 26.4174 9.19376 26.4174C9.19376 26.4174 55.474 -28.1777 114.997 32.3319H115Z" fill="black"/>
<path d="M111.346 32.1803C111.346 32.1803 60.1934 -24.0827 11.9365 30.0574C11.9365 30.0574 4.78058 38.8527 9.50031 42.6443C14.22 46.436 16.6562 41.5825 17.8738 40.8245C19.0914 40.0665 19.8532 41.2794 20.7667 42.7963C21.6801 44.3131 65.3726 75.7053 110.74 35.9719C110.74 35.9719 61.5672 75.4023 21.9843 38.5506C21.9843 38.5506 17.5687 33.698 22.1359 28.0865C26.7031 22.4751 54.1071 -12.7096 111.349 32.1803H111.346Z" fill="black"/>
<path d="M44.7538 10.2829C40.753 14.191 38.2711 19.6369 38.2711 25.6596C38.2711 37.5532 47.9499 47.1947 59.8895 47.1947C71.829 47.1947 81.5078 37.5532 81.5078 25.6596C81.5078 19.868 79.2123 14.6096 75.4782 10.7406C75.4782 10.7406 69.4806 8.21924 59.8895 8.21924C50.2984 8.21924 44.7538 10.2829 44.7538 10.2829ZM70.1976 24.7716L78.6835 23.989C78.7328 24.5404 78.7684 25.0964 78.7684 25.6605C78.7684 28.6196 78.0632 31.4076 76.8411 33.898L69.1764 30.1992C69.8533 28.828 70.2433 27.292 70.2433 25.6615C70.2424 25.3594 70.2223 25.0646 70.1976 24.7716ZM60.042 17.9244C64.4147 17.9244 67.9588 21.4549 67.9588 25.8107C67.9588 30.1665 64.4147 33.6969 60.042 33.6969C55.6694 33.6969 52.1253 30.1665 52.1253 25.8107C52.1253 21.4549 55.6694 17.9244 60.042 17.9244Z" fill="black"/>
</g>
<defs>
<clipPath id="clip0_172_277">
<rect width="115" height="56" fill="white" transform="matrix(-1 0 0 1 115 0)"/>
</clipPath>
</defs>
</svg>
