<svg width="70" height="70" viewBox="0 0 70 70" fill="none" xmlns="http://www.w3.org/2000/svg">
<mask id="path-1-inside-1_74_290" fill="white">
<path d="M69.4723 41.0548C67.9619 49.6543 63.2918 57.3788 56.3788 62.712C49.4657 68.0451 40.8089 70.6019 32.1076 69.8804C23.4064 69.1588 15.289 65.2111 9.34876 58.8121C3.40857 52.4131 0.0745915 44.025 0.00123659 35.2941C-0.0721183 26.5633 3.12045 18.1203 8.95228 11.6224C14.7841 5.12449 22.8341 1.04095 31.522 0.173318C40.2099 -0.694313 48.9084 1.71662 55.9101 6.93289C62.9118 12.1492 67.711 19.794 69.3657 28.367L60.6421 28.3669C59.4112 21.99 55.7621 18.0025 50.5539 14.1224C45.3457 10.2423 38.8754 8.44895 32.4129 9.09433C25.9504 9.73972 19.9625 12.7772 15.6245 17.6107C11.2865 22.4441 8.91174 28.7244 8.96631 35.2188C9.02087 41.7132 11.5008 47.9527 15.9194 52.7126C20.338 57.4724 26.3761 60.4089 32.8485 60.9456C39.321 61.4823 45.7603 59.5805 50.9025 55.6135C56.0447 51.6464 59.5186 47.4515 60.6421 41.0548H69.4723Z"/>
</mask>
<path d="M69.4723 41.0548L78.3366 42.6118L80.1908 32.0548H69.4723V41.0548ZM69.3657 28.367L69.3656 37.367L80.269 37.3671L78.2026 26.6613L69.3657 28.367ZM60.6421 28.3669L51.8052 30.0725L53.2131 37.3668L60.642 37.3669L60.6421 28.3669ZM60.6421 41.0548V32.0548H53.0851L51.7778 39.4979L60.6421 41.0548ZM60.608 39.4979C59.486 45.8861 56.0168 51.6243 50.8814 55.5861L61.8762 69.8379C70.5668 63.1333 76.4378 53.4226 78.3366 42.6118L60.608 39.4979ZM50.8814 55.5861C45.746 59.5478 39.3152 61.4471 32.8514 60.9112L31.3639 78.8496C42.3027 79.7567 53.1855 76.5424 61.8762 69.8379L50.8814 55.5861ZM32.8514 60.9112C26.3876 60.3752 20.3575 57.4426 15.9448 52.689L2.75273 64.9352C10.2204 72.9797 20.4251 77.9425 31.3639 78.8496L32.8514 60.9112ZM15.9448 52.689C11.5321 47.9355 9.05541 41.7043 9.00092 35.2185L-8.99845 35.3697C-8.90623 46.3457 -4.71494 56.8908 2.75273 64.9352L15.9448 52.689ZM9.00092 35.2185C8.94643 28.7327 11.318 22.4608 15.6503 17.6338L2.2543 5.61098C-5.07715 13.7798 -9.09066 24.3938 -8.99845 35.3697L9.00092 35.2185ZM15.6503 17.6338C19.9825 12.8068 25.9624 9.7733 32.4163 9.12877L30.6276 -8.78214C19.7057 -7.6914 9.58574 -2.55781 2.2543 5.61098L15.6503 17.6338ZM32.4163 9.12877C38.8702 8.48425 45.332 10.2752 50.5332 14.1502L61.287 -0.284388C52.4849 -6.84198 41.5496 -9.87287 30.6276 -8.78214L32.4163 9.12877ZM50.5332 14.1502C55.7345 18.0251 59.2996 23.7042 60.5288 30.0726L78.2026 26.6613C76.1224 15.8839 70.0891 6.2732 61.287 -0.284388L50.5332 14.1502ZM69.3658 19.367L60.6422 19.3669L60.642 37.3669L69.3656 37.367L69.3658 19.367ZM69.479 26.6612C67.638 17.1233 61.9653 11.4009 55.9308 6.90513L45.177 21.3397C49.5588 24.6041 51.1845 26.8566 51.8052 30.0725L69.479 26.6612ZM55.9308 6.90513C48.9222 1.68371 40.2151 -0.72961 31.5185 0.138879L33.3072 18.0498C37.5357 17.6275 41.7693 18.8009 45.177 21.3397L55.9308 6.90513ZM31.5185 0.138879C22.822 1.00737 14.7641 5.09494 8.92653 11.5993L22.3225 23.6221C25.1609 20.4595 29.0788 18.4721 33.3072 18.0498L31.5185 0.138879ZM8.92653 11.5993C3.08893 18.1036 -0.106801 26.5549 -0.0333738 35.2944L17.966 35.1432C17.9303 30.8939 19.4841 26.7846 22.3225 23.6221L8.92653 11.5993ZM-0.0333738 35.2944C0.0400536 44.0339 3.37733 52.4304 9.3234 58.8357L22.5155 46.5895C19.6244 43.4751 18.0017 39.3925 17.966 35.1432L-0.0333738 35.2944ZM9.3234 58.8357C15.2695 65.241 23.3949 69.1926 32.1048 69.9149L33.5923 51.9764C29.3573 51.6253 25.4066 49.7039 22.5155 46.5895L9.3234 58.8357ZM32.1048 69.9149C40.8147 70.6371 49.48 68.0778 56.3999 62.7394L45.4051 48.4875C42.0405 51.0832 37.8272 52.3276 33.5923 51.9764L32.1048 69.9149ZM56.3999 62.7394C62.5425 58.0006 67.8528 52.0265 69.5064 42.6118L51.7778 39.4979C51.1843 42.8766 49.547 45.2922 45.4051 48.4875L56.3999 62.7394ZM60.6421 50.0548H69.4723V32.0548H60.6421V50.0548Z" fill="black" mask="url(#path-1-inside-1_74_290)"/>
</svg>
